HIERARCHY
ROOT Hips
{
	OFFSET 0.053599 88.859886 3.107447
	CHANNELS 6 Xposition Yposition Zposition Zrotation Yrotation Xrotation 
	JOINT Spine
	{
		OFFSET -0.000000 8.814246 -2.080107
		CHANNELS 3 Zrotation Yrotation Xrotation
		JOINT Spine1
		{
			OFFSET 0.000000 8.844141 0.000000
			CHANNELS 3 Zrotation Yrotation Xrotation
			JOINT Spine2
			{
				OFFSET -0.000000 11.682268 0.000000
				CHANNELS 3 Zrotation Yrotation Xrotation
				JOINT Spine3
				{
					OFFSET 0.000000 11.746700 0.000000
					CHANNELS 3 Zrotation Yrotation Xrotation
					JOINT Neck
					{
						OFFSET -0.000000 17.658264 -0.000000
						CHANNELS 3 Zrotation Yrotation Xrotation
						JOINT Neck1
						{
							OFFSET -0.000000 5.101515 -0.000000
							CHANNELS 3 Zrotation Yrotation Xrotation
							JOINT Head
							{
								OFFSET 0.000000 5.101515 0.000000
								CHANNELS 3 Zrotation Yrotation Xrotation
								JOINT HeadEnd
								{
									OFFSET 0.000000 11.655085 0.000000
									CHANNELS 3 Zrotation Yrotation Xrotation
									End Site
									{
										OFFSET 0.000000 0.000000 0.000000
									}
								}
							}
						}
					}
					JOINT RightShoulder
					{
						OFFSET -2.625389 11.175210 0.000000
						CHANNELS 3 Zrotation Yrotation Xrotation
						JOINT RightArm
						{
							OFFSET -0.000000 10.434715 -0.000000
							CHANNELS 3 Zrotation Yrotation Xrotation
							JOINT RightForeArm
							{
								OFFSET -0.000000 29.628420 0.000000
								CHANNELS 3 Zrotation Yrotation Xrotation
								JOINT RightHand
								{
									OFFSET -0.000000 22.857611 0.000000
									CHANNELS 3 Zrotation Yrotation Xrotation
									JOINT RightHandThumb1
									{
										OFFSET -2.867323 3.959563 2.944291
										CHANNELS 3 Zrotation Yrotation Xrotation
										JOINT RightHandThumb2
										{
											OFFSET 0.000000 3.350399 0.000000
											CHANNELS 3 Zrotation Yrotation Xrotation
											JOINT RightHandThumb3
											{
												OFFSET 0.000000 3.756509 -0.000000
												CHANNELS 3 Zrotation Yrotation Xrotation
												JOINT RightHandThumb4
												{
													OFFSET 0.000000 3.147345 0.000000
													CHANNELS 3 Zrotation Yrotation Xrotation
													End Site
													{
														OFFSET 0.000000 0.000000 0.000000
													}
												}
											}
										}
									}
									JOINT RightHandIndex1
									{
										OFFSET -0.086752 10.030893 2.345280
										CHANNELS 3 Zrotation Yrotation Xrotation
										JOINT RightHandIndex2
										{
											OFFSET -0.000000 4.061090 0.000000
											CHANNELS 3 Zrotation Yrotation Xrotation
											JOINT RightHandIndex3
											{
												OFFSET -0.000000 3.248873 0.000000
												CHANNELS 3 Zrotation Yrotation Xrotation
												JOINT RightHandIndex4
												{
													OFFSET 0.000000 2.639709 -0.000000
													CHANNELS 3 Zrotation Yrotation Xrotation
													End Site
													{
														OFFSET 0.000000 0.000000 0.000000
													}
												}
											}
										}
									}
									JOINT RightHandMiddle1
									{
										OFFSET 0.104102 9.502952 0.006768
										CHANNELS 3 Zrotation Yrotation Xrotation
										JOINT RightHandMiddle2
										{
											OFFSET 0.000000 4.568727 0.000000
											CHANNELS 3 Zrotation Yrotation Xrotation
											JOINT RightHandMiddle3
											{
												OFFSET 0.000000 3.654981 -0.000000
												CHANNELS 3 Zrotation Yrotation Xrotation
												JOINT RightHandMiddle4
												{
													OFFSET -0.000000 2.741236 -0.000000
													CHANNELS 3 Zrotation Yrotation Xrotation
													End Site
													{
														OFFSET 0.000000 0.000000 0.000000
													}
												}
											}
										}
									}
									JOINT RightHandRing1
									{
										OFFSET 0.086752 8.921708 -2.267442
										CHANNELS 3 Zrotation Yrotation Xrotation
										JOINT RightHandRing2
										{
											OFFSET -0.000000 4.061090 0.000000
											CHANNELS 3 Zrotation Yrotation Xrotation
											JOINT RightHandRing3
											{
												OFFSET 0.000000 3.654981 -0.000000
												CHANNELS 3 Zrotation Yrotation Xrotation
												JOINT RightHandRing4
												{
													OFFSET 0.000000 2.741236 -0.000000
													CHANNELS 3 Zrotation Yrotation Xrotation
													End Site
													{
														OFFSET 0.000000 0.000000 0.000000
													}
												}
											}
										}
									}
									JOINT RightHandPinky1
									{
										OFFSET -0.173504 7.976997 -4.467199
										CHANNELS 3 Zrotation Yrotation Xrotation
										JOINT RightHandPinky2
										{
											OFFSET 0.000000 3.350399 -0.000000
											CHANNELS 3 Zrotation Yrotation Xrotation
											JOINT RightHandPinky3
											{
												OFFSET -0.000000 2.842763 0.000000
												CHANNELS 3 Zrotation Yrotation Xrotation
												JOINT RightHandPinky4
												{
													OFFSET -0.000000 2.639709 0.000000
													CHANNELS 3 Zrotation Yrotation Xrotation
													End Site
													{
														OFFSET 0.000000 0.000000 0.000000
													}
												}
											}
										}
									}
									JOINT RightForeArmEnd
									{
										OFFSET 0.000000 0.000000 0.000000
										CHANNELS 3 Zrotation Yrotation Xrotation
										End Site
										{
											OFFSET 0.000000 0.000000 0.000000
										}
									}
								}
								JOINT RightArmEnd
								{
									OFFSET 0.000000 0.000000 0.000000
									CHANNELS 3 Zrotation Yrotation Xrotation
									End Site
									{
										OFFSET 0.000000 0.000000 0.000000
									}
								}
							}
						}
					}
					JOINT LeftShoulder
					{
						OFFSET 2.625389 11.175210 0.000000
						CHANNELS 3 Zrotation Yrotation Xrotation
						JOINT LeftArm
						{
							OFFSET 0.000000 10.813635 -0.000000
							CHANNELS 3 Zrotation Yrotation Xrotation
							JOINT LeftForeArm
							{
								OFFSET 0.000000 28.724781 0.000000
								CHANNELS 3 Zrotation Yrotation Xrotation
								JOINT LeftHand
								{
									OFFSET 0.644384 25.716167 -0.328871
									CHANNELS 3 Zrotation Yrotation Xrotation
									JOINT LeftHandThumb1
									{
										OFFSET 2.867323 3.959563 2.944291
										CHANNELS 3 Zrotation Yrotation Xrotation
										JOINT LeftHandThumb2
										{
											OFFSET 0.000000 3.350399 0.000000
											CHANNELS 3 Zrotation Yrotation Xrotation
											JOINT LeftHandThumb3
											{
												OFFSET -0.000000 3.756509 0.000000
												CHANNELS 3 Zrotation Yrotation Xrotation
												JOINT LeftHandThumb4
												{
													OFFSET -0.000000 3.100000 0.000000
													CHANNELS 3 Zrotation Yrotation Xrotation
													End Site
													{
														OFFSET 0.000000 0.000000 0.000000
													}
												}
											}
										}
									}
									JOINT LeftHandIndex1
									{
										OFFSET 0.086752 10.030893 2.345280
										CHANNELS 3 Zrotation Yrotation Xrotation
										JOINT LeftHandIndex2
										{
											OFFSET -0.000000 4.061090 -0.000000
											CHANNELS 3 Zrotation Yrotation Xrotation
											JOINT LeftHandIndex3
											{
												OFFSET 0.000000 3.248873 -0.000000
												CHANNELS 3 Zrotation Yrotation Xrotation
												JOINT LeftHandIndex4
												{
													OFFSET 0.000000 2.639709 -0.000000
													CHANNELS 3 Zrotation Yrotation Xrotation
													End Site
													{
														OFFSET 0.000000 0.000000 0.000000
													}
												}
											}
										}
									}
									JOINT LeftHandMiddle1
									{
										OFFSET -0.104102 9.502952 0.006768
										CHANNELS 3 Zrotation Yrotation Xrotation
										JOINT LeftHandMiddle2
										{
											OFFSET -0.000000 4.568727 -0.000000
											CHANNELS 3 Zrotation Yrotation Xrotation
											JOINT LeftHandMiddle3
											{
												OFFSET 0.000000 3.654981 0.000000
												CHANNELS 3 Zrotation Yrotation Xrotation
												JOINT LeftHandMiddle4
												{
													OFFSET 0.000000 2.741236 -0.000000
													CHANNELS 3 Zrotation Yrotation Xrotation
													End Site
													{
														OFFSET 0.000000 0.000000 0.000000
													}
												}
											}
										}
									}
									JOINT LeftHandRing1
									{
										OFFSET -0.086752 8.921708 -2.267442
										CHANNELS 3 Zrotation Yrotation Xrotation
										JOINT LeftHandRing2
										{
											OFFSET 0.000000 4.061090 0.000000
											CHANNELS 3 Zrotation Yrotation Xrotation
											JOINT LeftHandRing3
											{
												OFFSET 0.000000 3.654981 0.000000
												CHANNELS 3 Zrotation Yrotation Xrotation
												JOINT LeftHandRing4
												{
													OFFSET 0.000000 2.741236 0.000000
													CHANNELS 3 Zrotation Yrotation Xrotation
													End Site
													{
														OFFSET 0.000000 0.000000 0.000000
													}
												}
											}
										}
									}
									JOINT LeftHandPinky1
									{
										OFFSET 0.173504 7.976997 -4.467199
										CHANNELS 3 Zrotation Yrotation Xrotation
										JOINT LeftHandPinky2
										{
											OFFSET -0.000000 3.350399 -0.000000
											CHANNELS 3 Zrotation Yrotation Xrotation
											JOINT LeftHandPinky3
											{
												OFFSET 0.000000 2.842763 0.000000
												CHANNELS 3 Zrotation Yrotation Xrotation
												JOINT LeftHandPinky4
												{
													OFFSET -0.000000 2.639709 -0.000000
													CHANNELS 3 Zrotation Yrotation Xrotation
													End Site
													{
														OFFSET 0.000000 0.000000 0.000000
													}
												}
											}
										}
									}
									JOINT LeftForeArmEnd
									{
										OFFSET 0.000000 0.000000 0.000000
										CHANNELS 3 Zrotation Yrotation Xrotation
										End Site
										{
											OFFSET 0.000000 0.000000 0.000000
										}
									}
								}
								JOINT LeftArmEnd
								{
									OFFSET 0.000000 0.000000 0.000000
									CHANNELS 3 Zrotation Yrotation Xrotation
									End Site
									{
										OFFSET 0.000000 0.000000 0.000000
									}
								}
							}
						}
					}
				}
			}
		}
	}
	JOINT RightUpLeg
	{
		OFFSET -11.289943 0.000000 0.000000
		CHANNELS 3 Zrotation Yrotation Xrotation
		JOINT RightLeg
		{
			OFFSET 0.000000 -38.200325 0.000000
			CHANNELS 3 Zrotation Yrotation Xrotation
			JOINT RightFoot
			{
				OFFSET -0.000000 -39.900856 -0.000000
				CHANNELS 3 Zrotation Yrotation Xrotation
				JOINT RightToeBase
				{
					OFFSET 0.000000 0.000000 15.261641
					CHANNELS 3 Zrotation Yrotation Xrotation
					JOINT RightToeBaseEnd
					{
						OFFSET 0.000000 0.000000 7.370709
						CHANNELS 3 Zrotation Yrotation Xrotation
						End Site
						{
							OFFSET 0.000000 0.000000 0.000000
						}
					}
				}
				JOINT RightLegEnd
				{
					OFFSET 0.000000 0.000000 0.000000
					CHANNELS 3 Zrotation Yrotation Xrotation
					End Site
					{
						OFFSET 0.000000 0.000000 0.000000
					}
				}
			}
			JOINT RightUpLegEnd
			{
				OFFSET 0.000000 0.000000 0.000000
				CHANNELS 3 Zrotation Yrotation Xrotation
				End Site
				{
					OFFSET 0.000000 0.000000 0.000000
				}
			}
		}
	}
	JOINT LeftUpLeg
	{
		OFFSET 11.315661 -0.000000 0.000000
		CHANNELS 3 Zrotation Yrotation Xrotation
		JOINT LeftLeg
		{
			OFFSET -0.000000 -38.200325 -0.000000
			CHANNELS 3 Zrotation Yrotation Xrotation
			JOINT LeftFoot
			{
				OFFSET 0.000000 -39.900856 -0.000000
				CHANNELS 3 Zrotation Yrotation Xrotation
				JOINT LeftToeBase
				{
					OFFSET -0.000000 -0.000000 15.261641
					CHANNELS 3 Zrotation Yrotation Xrotation
					JOINT LeftToeBaseEnd
					{
						OFFSET 0.000000 -0.000000 7.539996
						CHANNELS 3 Zrotation Yrotation Xrotation
						End Site
						{
							OFFSET 0.000000 0.000000 0.000000
						}
					}
				}
				JOINT LeftLegEnd
				{
					OFFSET 0.000000 0.000000 0.000000
					CHANNELS 3 Zrotation Yrotation Xrotation
					End Site
					{
						OFFSET 0.000000 0.000000 0.000000
					}
				}
			}
			JOINT LeftUpLegEnd
			{
				OFFSET 0.000000 0.000000 0.000000
				CHANNELS 3 Zrotation Yrotation Xrotation
				End Site
				{
					OFFSET 0.000000 0.000000 0.000000
				}
			}
		}
	}
}
MOTION
Frames: 4
Frame Time: 0.016667
0.531410 88.757172 3.326451 -0.019041 -1.980337 -10.872561 0.973376 0.108679 7.118066 -1.178899 0.187187 2.072860 0.167243 -1.068306 5.121304 -1.248878 -0.046922 4.073547 1.257024 0.725574 3.931624 0.542230 0.957025 -3.366515 -0.410337 -1.116533 -19.265766 0.000000 0.000000 0.000000 91.928474 -0.369395 9.804873 67.709854 -25.859283 -0.348829 -0.523665 17.242361 56.864212 4.334394 2.124986 -5.543784 19.755262 30.135067 62.202221 -8.318946 -11.885633 -20.149666 -6.200370 -7.847440 -13.961995 0.000000 0.000000 0.000000 12.520527 -10.822544 2.362360 9.536295 0.221088 1.619562 9.178707 -0.200829 1.597137 0.000000 0.000000 0.000000 11.656273 -5.406897 0.279301 8.212254 0.390240 0.642361 8.777593 -0.090678 0.557046 0.000000 0.000000 0.000000 12.060028 2.344511 -1.709690 9.017027 -0.828608 -0.952639 9.068708 0.112594 -0.691364 0.000000 0.000000 0.000000 10.681169 10.992077 -4.302531 8.827415 -1.464642 -2.633209 8.688201 0.394017 -2.210106 0.000000 0.000000 0.000000 0.000000 0.000000 0.000000 0.000000 0.000000 0.000000 -88.466904 0.142547 5.183589 -73.093246 15.438334 -8.101098 -0.411232 -14.350208 71.287872 -5.795742 -3.875773 -11.895144 -19.870485 -30.102480 61.936378 8.580612 12.272142 -20.623411 6.365636 8.248027 -14.509054 0.000000 0.000000 0.000000 -17.137211 -5.497568 3.353734 -11.078956 0.318208 -1.197064 -11.018736 -0.141579 -1.129179 0.000000 0.000000 0.000000 -16.443388 -0.502480 0.775661 -10.937000 0.414102 -0.539358 -11.087903 -0.063705 -0.449647 0.000000 0.000000 0.000000 -18.941837 7.557351 -2.392413 -12.902790 -0.848078 0.862045 -12.940618 0.096187 0.671597 0.000000 0.000000 0.000000 -21.309149 16.121058 -5.973952 -14.151949 -1.490399 2.847129 -13.963470 0.436192 2.476723 0.000000 0.000000 0.000000 0.000000 0.000000 0.000000 0.000000 0.000000 0.000000 -1.380651 -9.602858 15.477464 -0.066396 -0.674886 5.049332 -2.520257 -7.322411 17.329451 -0.880641 0.875765 -18.471373 0.000000 0.000000 0.000000 0.000000 0.000000 0.000000 0.000000 0.000000 0.000000 -1.378366 -5.578299 9.446522 0.076402 0.358322 10.647412 3.995713 -1.449506 16.737036 0.241612 -0.409616 -21.222969 0.000000 0.000000 0.000000 0.000000 0.000000 0.000000 0.000000 0.000000 0.000000 
0.539156 88.756607 3.331843 -0.016419 -1.972587 -10.887749 0.965427 0.107746 7.118149 -1.166043 0.179743 2.059795 0.150438 -1.050815 5.159047 -1.257978 -0.043145 4.083933 1.296469 0.733321 3.952310 0.547972 0.964183 -3.374776 -0.411779 -1.118602 -19.319046 0.000000 0.000000 0.000000 91.907120 -0.377108 9.783653 67.655830 -26.152016 -0.400078 -0.519120 17.246906 57.004082 4.276046 2.127458 -5.528418 19.750259 30.137812 62.201122 -8.316259 -11.885556 -20.141577 -6.198968 -7.843805 -13.957327 0.000000 0.000000 0.000000 12.517988 -10.823831 2.509856 9.557703 0.214312 1.647066 9.203980 -0.207267 1.621316 0.000000 0.000000 0.000000 11.665478 -5.405401 0.385260 8.240326 0.387099 0.652292 8.797060 -0.093615 0.565427 0.000000 0.000000 0.000000 12.059554 2.343747 -1.643677 9.034351 -0.822027 -0.965847 9.077536 0.116847 -0.701872 0.000000 0.000000 0.000000 10.707879 10.986239 -4.259509 8.854824 -1.449321 -2.668988 8.713906 0.405659 -2.236737 0.000000 0.000000 0.000000 0.000000 0.000000 0.000000 0.000000 0.000000 0.000000 -88.427963 0.155334 5.155551 -73.071091 15.540071 -8.075759 -0.401476 -14.355385 71.426765 -5.760895 -3.699254 -11.965945 -19.850418 -30.113743 61.964642 8.547873 12.224523 -20.546705 6.338552 8.214693 -14.457421 0.000000 0.000000 0.000000 -17.002287 -5.525928 3.494560 -11.049380 0.318322 -1.189823 -10.988894 -0.141964 -1.122927 0.000000 0.000000 0.000000 -16.295473 -0.533348 0.889391 -10.895658 0.414420 -0.536167 -11.055333 -0.063587 -0.447352 0.000000 0.000000 0.000000 -18.698359 7.524270 -2.338962 -12.818944 -0.848976 0.857416 -12.853642 0.095666 0.669036 0.000000 0.000000 0.000000 -21.027758 16.097435 -5.970961 -14.033397 -1.492275 2.835934 -13.849790 0.434487 2.467516 0.000000 0.000000 0.000000 0.000000 0.000000 0.000000 0.000000 0.000000 0.000000 -1.407343 -9.579565 15.488514 -0.067549 -0.677433 5.059766 -2.498581 -7.321197 17.349808 -0.883491 0.875373 -18.496412 0.000000 0.000000 0.000000 0.000000 0.000000 0.000000 0.000000 0.000000 0.000000 -1.388020 -5.597255 9.444057 0.076984 0.359045 10.717742 3.996812 -1.439514 16.724159 0.239215 -0.407674 -21.255890 0.000000 0.000000 0.000000 0.000000 0.000000 0.000000 0.000000 0.000000 0.000000 
0.545634 88.754936 3.337951 -0.011987 -1.964653 -10.906993 0.954791 0.107541 7.116244 -1.153571 0.173327 2.048455 0.128161 -1.035235 5.193968 -1.263863 -0.040751 4.097776 1.339580 0.744638 3.989882 0.553655 0.975747 -3.374323 -0.416666 -1.120305 -19.375122 0.000000 0.000000 0.000000 91.888947 -0.382924 9.764031 67.601273 -26.433027 -0.417885 -0.512791 17.238256 57.001965 4.284476 2.131037 -5.542005 19.752354 30.138559 62.194340 -8.318950 -11.897747 -20.152351 -6.202621 -7.849061 -13.965620 0.000000 0.000000 0.000000 12.547071 -10.834436 2.620790 9.613451 0.208618 1.671382 9.263362 -0.212819 1.642461 0.000000 0.000000 0.000000 11.700191 -5.409658 0.465535 8.301855 0.384477 0.660830 8.848907 -0.096200 0.572675 0.000000 0.000000 0.000000 12.078791 2.341257 -1.585588 9.082238 -0.816151 -0.978346 9.117574 0.120601 -0.711800 0.000000 0.000000 0.000000 10.745187 10.979892 -4.213394 8.902905 -1.435277 -2.704342 8.760472 0.416263 -2.263407 0.000000 0.000000 0.000000 0.000000 0.000000 0.000000 0.000000 0.000000 0.000000 -88.398766 0.163748 5.130587 -73.077843 15.596395 -8.057158 -0.395002 -14.357964 71.499214 -5.758997 -3.592153 -12.051824 -19.837448 -30.122475 61.984894 8.523638 12.190254 -20.492569 6.317929 8.190521 -14.421281 0.000000 0.000000 0.000000 -16.899326 -5.550045 3.603607 -11.044712 0.319111 -1.183623 -10.982984 -0.141645 -1.117746 0.000000 0.000000 0.000000 -16.186125 -0.558595 0.981265 -10.878091 0.414954 -0.533380 -11.044919 -0.063295 -0.445198 0.000000 0.000000 0.000000 -18.501535 7.497608 -2.290813 -12.755620 -0.850219 0.853515 -12.787861 0.094886 0.666962 0.000000 0.000000 0.000000 -20.788704 16.075933 -5.963655 -13.929845 -1.494895 2.825664 -13.752972 0.432257 2.459921 0.000000 0.000000 0.000000 0.000000 0.000000 0.000000 0.000000 0.000000 0.000000 -1.438648 -9.552798 15.502268 -0.068963 -0.680712 5.068787 -2.474552 -7.310021 17.365036 -0.886354 0.875050 -18.516014 0.000000 0.000000 0.000000 0.000000 0.000000 0.000000 0.000000 0.000000 0.000000 -1.403964 -5.623839 9.446434 0.077550 0.359513 10.790001 4.002873 -1.420736 16.704596 0.236555 -0.406031 -21.285559 0.000000 0.000000 0.000000 0.000000 0.000000 0.000000 0.000000 0.000000 0.000000 
0.551357 88.752136 3.344831 -0.006885 -1.954239 -10.931008 0.943809 0.107868 7.113072 -1.142914 0.168433 2.038117 0.104425 -1.021044 5.228672 -1.267025 -0.038709 4.112581 1.378024 0.761743 4.040944 0.559264 0.991545 -3.366465 -0.424576 -1.121596 -19.431179 0.000000 0.000000 0.000000 91.872040 -0.386068 9.749443 67.547501 -26.693649 -0.402367 -0.505417 17.217182 56.866051 4.350966 2.119942 -5.589563 19.758867 30.138092 62.184498 -8.323853 -11.916839 -20.174170 -6.208926 -7.859659 -13.981115 0.000000 0.000000 0.000000 12.584055 -10.850431 2.706382 9.687483 0.203995 1.692477 9.340040 -0.217426 1.660481 0.000000 0.000000 0.000000 11.737341 -5.415912 0.525473 8.379442 0.382398 0.667966 8.916564 -0.098384 0.578750 0.000000 0.000000 0.000000 12.096531 2.340776 -1.538685 9.143419 -0.811077 -0.989734 9.172222 0.123779 -0.720777 0.000000 0.000000 0.000000 10.775231 10.976997 -4.175879 8.957211 -1.422917 -2.737206 8.813791 0.425571 -2.288428 0.000000 0.000000 0.000000 0.000000 0.000000 0.000000 0.000000 0.000000 0.000000 -88.373207 0.166819 5.109879 -73.103920 15.601464 -8.028778 -0.391433 -14.362839 71.510086 -5.779068 -3.537045 -12.162198 -19.835342 -30.127245 61.992786 8.512108 12.177261 -20.473333 6.307372 8.180965 -14.409093 0.000000 0.000000 0.000000 -16.847998 -5.566240 3.675966 -11.070018 0.320221 -1.178908 -11.005532 -0.140939 -1.114111 0.000000 0.000000 0.000000 -16.132692 -0.574584 1.046744 -10.890282 0.415595 -0.531224 -11.062716 -0.062918 -0.443279 0.000000 0.000000 0.000000 -18.374619 7.480910 -2.251123 -12.722886 -0.851598 0.850337 -12.753623 0.094018 0.665344 0.000000 0.000000 0.000000 -20.618422 16.059656 -5.952770 -13.854758 -1.497781 2.815941 -13.685470 0.429892 2.453444 0.000000 0.000000 0.000000 0.000000 0.000000 0.000000 0.000000 0.000000 0.000000 -1.473220 -9.524230 15.516485 -0.070502 -0.684456 5.080194 -2.446637 -7.293834 17.376175 -0.889273 0.874887 -18.530064 0.000000 0.000000 0.000000 0.000000 0.000000 0.000000 0.000000 0.000000 0.000000 -1.424463 -5.657261 9.453731 0.078037 0.359760 10.864261 4.013930 -1.396757 16.678701 0.233253 -0.404829 -21.310068 0.000000 0.000000 0.000000 0.000000 0.000000 0.000000 0.000000 0.000000 0.000000 
